<svg width="120" height="120" viewBox="0 0 120 120" fill="none" xmlns="http://www.w3.org/2000/svg">
  <!-- Circular background -->
  <circle cx="60" cy="60" r="58" fill="white" stroke="#F59E0B" stroke-width="3"/>
  
  <!-- Mountains (top) -->
  <path d="M 60 25 L 40 50 L 45 50 L 60 32 L 75 50 L 80 50 Z" fill="#1E40AF"/>
  
  <!-- Medical caduceus symbol (center) -->
  <g transform="translate(60, 55)">
    <!-- Rod -->
    <rect x="-2" y="0" width="4" height="35" fill="#1E40AF" rx="2"/>
    
    <!-- Wings -->
    <path d="M -2 5 Q -12 0 -15 5 Q -12 10 -2 8 Z" fill="#1E40AF"/>
    <path d="M 2 5 Q 12 0 15 5 Q 12 10 2 8 Z" fill="#1E40AF"/>
    
    <!-- Snake (left) -->
    <path d="M -2 12 Q -8 15 -6 20 Q -4 25 -2 28" stroke="#10B981" stroke-width="2.5" fill="none" stroke-linecap="round"/>
    
    <!-- Snake (right) -->
    <path d="M 2 12 Q 8 15 6 20 Q 4 25 2 28" stroke="#10B981" stroke-width="2.5" fill="none" stroke-linecap="round"/>
    
    <!-- Snake heads -->
    <circle cx="-2" cy="12" r="2" fill="#10B981"/>
    <circle cx="2" cy="12" r="2" fill="#10B981"/>
  </g>
  
  <!-- Palm tree (bottom left) -->
  <g transform="translate(35, 75)">
    <!-- Trunk -->
    <path d="M 0 0 L -1 18 L 1 18 Z" fill="#10B981"/>
    <!-- Leaves -->
    <path d="M 0 0 Q -8 -3 -10 2 L -5 3 Z" fill="#10B981"/>
    <path d="M 0 0 Q 8 -3 10 2 L 5 3 Z" fill="#10B981"/>
    <path d="M 0 0 Q -3 -8 2 -10 L 3 -5 Z" fill="#10B981"/>
  </g>
  
  <!-- Sand dune (bottom) -->
  <path d="M 20 85 Q 40 75 60 80 Q 80 85 100 75 L 100 95 Q 60 88 20 95 Z" fill="#F59E0B" opacity="0.6"/>
</svg>
